<svg width="18" height="18" viewBox="0 0 18 18" fill="none" xmlns="http://www.w3.org/2000/svg">
<g filter="url(#filter0_f_100_601)">
<path d="M9 12.1113C9.82509 12.1113 10.6164 11.7836 11.1998 11.2001C11.7832 10.6167 12.111 9.82542 12.111 9.00033C12.111 8.17524 11.7832 7.38395 11.1998 6.80052C10.6164 6.2171 9.82509 5.88933 9 5.88933C8.17491 5.88933 7.38362 6.2171 6.80019 6.80052C6.21676 7.38395 5.889 8.17524 5.889 9.00033C5.889 9.82542 6.21676 10.6167 6.80019 11.2001C7.38362 11.7836 8.17491 12.1113 9 12.1113ZM14.3333 16.1113C14.8048 16.1113 15.257 15.924 15.5903 15.5907C15.9237 15.2573 16.111 14.8051 16.111 14.3337C16.111 13.8622 15.9237 13.41 15.5903 13.0767C15.257 12.7433 14.8048 12.556 14.3333 12.556C13.8619 12.556 13.4097 12.7433 13.0763 13.0767C12.743 13.41 12.5557 13.8622 12.5557 14.3337C12.5557 14.8051 12.743 15.2573 13.0763 15.5907C13.4097 15.924 13.8619 16.1113 14.3333 16.1113ZM5.44467 14.778C4.85567 14.7764 4.29124 14.5417 3.87475 14.1252C3.45827 13.7088 3.22358 13.1443 3.222 12.5553V10.778H1V12.5553C0.999825 13.1391 1.11467 13.7171 1.33797 14.2564C1.56128 14.7958 1.88866 15.2858 2.30142 15.6986C2.71418 16.1113 3.20423 16.4387 3.74356 16.662C4.28289 16.8853 4.86094 17.0002 5.44467 17H7.222V14.778H5.44467ZM3.222 5.44467C3.222 4.222 4.222 3.222 5.44467 3.222H7.222V1H5.44467C4.86094 0.999825 4.28289 1.11467 3.74356 1.33797C3.20423 1.56128 2.71418 1.88866 2.30142 2.30142C1.88866 2.71418 1.56128 3.20423 1.33797 3.74356C1.11467 4.28289 0.999825 4.86094 1 5.44467V7.222H3.222V5.44467ZM12.5553 3.222C13.778 3.222 14.778 4.222 14.778 5.44467V7.222H17V5.44467C17.0002 4.86094 16.8853 4.28289 16.662 3.74356C16.4387 3.20423 16.1113 2.71418 15.6986 2.30142C15.2858 1.88866 14.7958 1.56128 14.2564 1.33797C13.7171 1.11467 13.1391 0.999825 12.5553 1H10.778V3.222H12.5553Z" fill="url(#paint0_linear_100_601)"/>
<path d="M9 12.1113C9.82509 12.1113 10.6164 11.7836 11.1998 11.2001C11.7832 10.6167 12.111 9.82542 12.111 9.00033C12.111 8.17524 11.7832 7.38395 11.1998 6.80052C10.6164 6.2171 9.82509 5.88933 9 5.88933C8.17491 5.88933 7.38362 6.2171 6.80019 6.80052C6.21676 7.38395 5.889 8.17524 5.889 9.00033C5.889 9.82542 6.21676 10.6167 6.80019 11.2001C7.38362 11.7836 8.17491 12.1113 9 12.1113ZM14.3333 16.1113C14.8048 16.1113 15.257 15.924 15.5903 15.5907C15.9237 15.2573 16.111 14.8051 16.111 14.3337C16.111 13.8622 15.9237 13.41 15.5903 13.0767C15.257 12.7433 14.8048 12.556 14.3333 12.556C13.8619 12.556 13.4097 12.7433 13.0763 13.0767C12.743 13.41 12.5557 13.8622 12.5557 14.3337C12.5557 14.8051 12.743 15.2573 13.0763 15.5907C13.4097 15.924 13.8619 16.1113 14.3333 16.1113ZM5.44467 14.778C4.85567 14.7764 4.29124 14.5417 3.87475 14.1252C3.45827 13.7088 3.22358 13.1443 3.222 12.5553V10.778H1V12.5553C0.999825 13.1391 1.11467 13.7171 1.33797 14.2564C1.56128 14.7958 1.88866 15.2858 2.30142 15.6986C2.71418 16.1113 3.20423 16.4387 3.74356 16.662C4.28289 16.8853 4.86094 17.0002 5.44467 17H7.222V14.778H5.44467ZM3.222 5.44467C3.222 4.222 4.222 3.222 5.44467 3.222H7.222V1H5.44467C4.86094 0.999825 4.28289 1.11467 3.74356 1.33797C3.20423 1.56128 2.71418 1.88866 2.30142 2.30142C1.88866 2.71418 1.56128 3.20423 1.33797 3.74356C1.11467 4.28289 0.999825 4.86094 1 5.44467V7.222H3.222V5.44467ZM12.5553 3.222C13.778 3.222 14.778 4.222 14.778 5.44467V7.222H17V5.44467C17.0002 4.86094 16.8853 4.28289 16.662 3.74356C16.4387 3.20423 16.1113 2.71418 15.6986 2.30142C15.2858 1.88866 14.7958 1.56128 14.2564 1.33797C13.7171 1.11467 13.1391 0.999825 12.5553 1H10.778V3.222H12.5553Z" stroke="#4E5968"/>
</g>
<path d="M9.04445 12.1113C9.87412 12.1113 10.6698 11.7836 11.2565 11.2001C11.8431 10.6167 12.1727 9.82542 12.1727 9.00033C12.1727 8.17524 11.8431 7.38395 11.2565 6.80052C10.6698 6.2171 9.87412 5.88933 9.04445 5.88933C8.21477 5.88933 7.41908 6.2171 6.83241 6.80052C6.24575 7.38395 5.91616 8.17524 5.91616 9.00033C5.91616 9.82542 6.24575 10.6167 6.83241 11.2001C7.41908 11.7836 8.21477 12.1113 9.04445 12.1113ZM14.4074 16.1113C14.8815 16.1113 15.3362 15.924 15.6714 15.5907C16.0066 15.2573 16.195 14.8051 16.195 14.3337C16.195 13.8622 16.0066 13.41 15.6714 13.0767C15.3362 12.7433 14.8815 12.556 14.4074 12.556C13.9333 12.556 13.4787 12.7433 13.1434 13.0767C12.8082 13.41 12.6199 13.8622 12.6199 14.3337C12.6199 14.8051 12.8082 15.2573 13.1434 15.5907C13.4787 15.924 13.9333 16.1113 14.4074 16.1113ZM5.46936 14.778C4.87709 14.7764 4.30953 14.5417 3.89072 14.1252C3.47192 13.7088 3.23594 13.1443 3.23434 12.5553V10.778H1V12.5553C0.999824 13.1391 1.11531 13.7171 1.33985 14.2564C1.5644 14.7958 1.8936 15.2858 2.30865 15.6986C2.72371 16.1113 3.21647 16.4387 3.7588 16.662C4.30113 16.8853 4.88239 17.0002 5.46936 17H7.25657V14.778H5.46936ZM3.23434 5.44467C3.23434 4.222 4.2399 3.222 5.46936 3.222H7.25657V1H5.46936C4.88239 0.999825 4.30113 1.11467 3.7588 1.33797C3.21647 1.56128 2.72371 1.88866 2.30865 2.30142C1.8936 2.71418 1.5644 3.20423 1.33985 3.74356C1.11531 4.28289 0.999824 4.86094 1 5.44467V7.222H3.23434V5.44467ZM12.6195 3.222C13.849 3.222 14.8545 4.222 14.8545 5.44467V7.222H17.0889V5.44467C17.0891 4.86094 16.9736 4.28289 16.749 3.74356C16.5245 3.20423 16.1953 2.71418 15.7802 2.30142C15.3652 1.88866 14.8724 1.56128 14.3301 1.33797C13.7878 1.11467 13.2065 0.999825 12.6195 1H10.8323V3.222H12.6195Z" fill="url(#paint1_linear_100_601)"/>
<defs>
<filter id="filter0_f_100_601" x="0" y="0" width="18" height="18" filterUnits="userSpaceOnUse" color-interpolation-filters="sRGB">
<feFlood flood-opacity="0" result="BackgroundImageFix"/>
<feBlend mode="normal" in="SourceGraphic" in2="BackgroundImageFix" result="shape"/>
<feGaussianBlur stdDeviation="0.5" result="effect1_foregroundBlur_100_601"/>
</filter>
<linearGradient id="paint0_linear_100_601" x1="3" y1="2.5" x2="17" y2="17" gradientUnits="userSpaceOnUse">
<stop stop-color="#E45C7E"/>
<stop offset="0.4375" stop-color="#E79B9B"/>
<stop offset="1" stop-color="#8135DD"/>
</linearGradient>
<linearGradient id="paint1_linear_100_601" x1="3.01111" y1="2.5" x2="17.0082" y2="17.0775" gradientUnits="userSpaceOnUse">
<stop stop-color="#ED416C"/>
<stop offset="0.4375" stop-color="#F58A8A"/>
<stop offset="1" stop-color="#7D20EF"/>
</linearGradient>
</defs>
</svg>
