<svg width="32" height="32" viewBox="0 0 32 32" fill="none" xmlns="http://www.w3.org/2000/svg">
<path d="M16.6407 31.9539C16.4684 31.9301 16.0941 31.8683 15.8182 31.8112C15.4292 31.7304 15.311 31.6923 15.311 31.6305C15.311 31.5686 15.3011 31.5686 15.2666 31.621C15.2322 31.6733 15.0696 31.6352 14.4195 31.4164C13.3656 31.0692 12.8878 30.8932 12.8977 30.8457C12.9026 30.8266 12.8878 30.7934 12.8681 30.7791C12.8484 30.7601 12.8484 30.7743 12.8681 30.8076C12.9223 30.8932 12.873 30.8837 12.2525 30.6459C11.8683 30.4985 11.6565 30.3891 11.6221 30.3225C11.5827 30.2511 11.5728 30.2464 11.5925 30.3082C11.6073 30.3558 11.5974 30.3891 11.5728 30.3796C10.9769 30.156 10.6814 30.0181 10.6764 29.961C10.6764 29.9182 10.6617 29.9134 10.6518 29.9467C10.637 29.98 10.4647 29.9372 10.1396 29.8088C9.86873 29.7041 9.65695 29.5995 9.67173 29.5805C9.68651 29.5615 9.66188 29.5282 9.61755 29.5139C9.5683 29.4949 9.55353 29.5044 9.57815 29.5424C9.60278 29.5805 9.588 29.5852 9.5289 29.5662C9.47965 29.5472 9.42548 29.5329 9.4107 29.5329C9.391 29.5329 9.4107 29.5091 9.4501 29.4806C9.5092 29.4425 9.50428 29.4378 9.42548 29.4568C9.36145 29.4758 9.11027 29.4045 8.80984 29.2903C8.16958 29.0478 7.08605 28.691 6.8595 28.6482C6.77085 28.634 6.69205 28.6007 6.69205 28.5816C6.69205 28.5626 6.63295 28.5579 6.56399 28.5721C6.49012 28.5864 6.44579 28.5769 6.46057 28.5531C6.47534 28.5293 6.40639 28.5103 6.30789 28.5055C5.80553 28.5008 5.33272 28.458 5.30317 28.4152C5.27854 28.3866 5.26377 28.3914 5.26377 28.4294C5.26377 28.4675 5.18989 28.4865 5.04707 28.4865C4.56441 28.4865 3.62864 28.7814 2.70272 29.219C2.41707 29.3569 2.13634 29.4616 2.08216 29.4568C2.01321 29.4521 1.97873 29.4758 1.98366 29.5282C1.98366 29.571 1.95903 29.5995 1.92456 29.59C1.89501 29.5852 1.86546 29.5995 1.86546 29.6233C1.86546 29.6994 1.33355 29.961 1.23997 29.9325C1.16609 29.9087 1.16609 29.9134 1.22519 29.9562C1.33847 30.0323 0.875511 30.2178 0.604631 30.2036C0.471654 30.1988 0.230324 29.9657 0.259874 29.8801C0.27465 29.8421 0.269725 29.8231 0.2451 29.8373C0.176148 29.8801 0.0973464 29.6138 0.0382453 29.1334C-0.0602566 28.3628 0.0431706 25.7278 0.215549 24.6862C0.299276 24.201 0.481504 23.7016 0.575081 23.7159C0.604632 23.7254 0.619406 23.7016 0.604631 23.6635C0.560305 23.5494 1.24489 22.7551 1.33847 22.8122C1.36802 22.8264 1.37295 22.8217 1.35817 22.7931C1.31384 22.7265 1.80143 22.3365 1.87531 22.3793C1.90486 22.3984 1.91471 22.3936 1.89993 22.3651C1.85068 22.289 2.03291 22.1558 2.14126 22.1891C2.21021 22.2081 2.21514 22.2033 2.17081 22.17C2.12156 22.1368 2.18559 22.0702 2.43184 21.9037C2.60914 21.7848 2.78645 21.6992 2.816 21.7134C2.85047 21.7325 2.86032 21.7277 2.8357 21.7087C2.78152 21.6468 3.22478 21.3948 3.32821 21.4281C3.39223 21.4471 3.39716 21.4423 3.35283 21.4138C3.27403 21.3567 4.1507 20.9049 4.25905 20.9429C4.29845 20.9572 4.32308 20.9524 4.3083 20.9286C4.2492 20.8383 5.52972 20.4102 6.33744 20.2532C7.13038 20.0963 9.4698 20.063 9.37622 20.2104C9.36145 20.2294 9.39592 20.239 9.44518 20.2247C9.57323 20.1914 10.5878 20.4007 10.5533 20.453C10.5385 20.4768 10.5632 20.4815 10.6026 20.4673C10.7208 20.4245 12.3707 20.9096 12.3264 20.9762C12.3165 20.9952 12.3313 21.0285 12.3608 21.0475C12.4002 21.0666 12.4052 21.0618 12.3855 21.0285C12.3658 20.9952 12.3805 20.9714 12.4249 20.9714C12.4692 20.9714 12.5037 20.9952 12.5037 21.0238C12.5037 21.0475 12.5234 21.0618 12.548 21.0475C12.6268 20.9952 13.0454 21.1665 13.0454 21.2473C13.0454 21.3091 13.0553 21.3139 13.0848 21.2663C13.1341 21.195 13.4247 21.2806 13.5281 21.3948C13.5724 21.4423 13.5823 21.4471 13.5576 21.4043C13.533 21.3567 13.5429 21.3424 13.597 21.3662C13.6414 21.3805 13.7694 21.4185 13.8778 21.4518C14.0255 21.4946 14.0649 21.5232 14.0206 21.5565C13.9763 21.585 13.9861 21.5898 14.0501 21.5707C14.1831 21.5279 14.6806 21.6897 14.6215 21.7562C14.5919 21.7895 14.6067 21.8086 14.6707 21.8086C14.72 21.8086 14.7495 21.7895 14.7397 21.7705C14.7052 21.7134 14.6855 21.7087 15.6114 21.9893C16.0842 22.132 16.6063 22.2842 16.7786 22.327C16.9904 22.3841 17.084 22.4364 17.084 22.4887C17.084 22.5458 17.0938 22.5506 17.1283 22.503C17.1726 22.4316 17.4288 22.4745 17.4288 22.5506C17.4288 22.5791 17.4632 22.5886 17.5026 22.5743C17.542 22.5553 17.6898 22.5743 17.8326 22.6124C17.9754 22.6504 18.2118 22.7075 18.3547 22.7361C18.4926 22.7694 18.6108 22.8074 18.6108 22.8217C18.6108 22.8359 18.6896 22.8502 18.7881 22.855C18.8866 22.855 18.9802 22.8835 19.0048 22.9216C19.0245 22.9549 19.0639 22.9691 19.0934 22.9501C19.1525 22.9168 20.2361 23.1166 20.2114 23.1594C20.2016 23.1784 20.2607 23.1784 20.3444 23.1689C20.4281 23.1546 20.4823 23.1641 20.4675 23.1879C20.4528 23.2117 20.5217 23.2307 20.6202 23.2307C20.7236 23.2355 20.8468 23.2545 20.9009 23.2735C20.9551 23.2973 21.0487 23.3211 21.1078 23.3306C21.3935 23.3639 21.817 23.7064 21.7333 23.8348C21.7136 23.8633 21.7185 23.8728 21.7481 23.8586C21.7825 23.8395 21.8022 23.9442 21.8022 24.1582C21.8072 24.3913 21.7924 24.4816 21.753 24.4626C21.7234 24.4436 21.7136 24.4484 21.7333 24.4816C21.7776 24.5482 21.6742 24.7908 21.6151 24.7528C21.5905 24.7385 21.5757 24.7528 21.5905 24.7861C21.6249 24.8764 21.226 25.3093 21.1373 25.2807C21.0979 25.2664 21.0832 25.276 21.0979 25.2997C21.1127 25.3283 21.0782 25.3473 21.0142 25.3473C20.9354 25.3473 20.9206 25.3616 20.965 25.3901C21.0388 25.4329 20.502 25.7183 20.1129 25.8372C19.5219 26.0227 18.3103 26.0798 17.4534 25.9656C17.2367 25.9371 16.9559 25.899 16.8279 25.8848C16.6998 25.8705 16.6013 25.842 16.6161 25.8229C16.626 25.8087 16.5669 25.8039 16.4831 25.8134C16.3994 25.8277 16.3452 25.8182 16.36 25.7944C16.3748 25.7706 16.3058 25.7516 16.2073 25.7516C15.9069 25.7468 14.1634 25.3378 14.2373 25.2902C14.2767 25.2617 14.2619 25.2569 14.188 25.276C14.124 25.295 13.8039 25.2522 13.4739 25.1856C12.1835 24.924 11.3167 24.8955 11.5088 25.1238C11.5433 25.1571 11.558 25.2046 11.5433 25.2189C11.5285 25.2379 11.5334 25.2427 11.5482 25.2284C11.5679 25.2189 11.6516 25.2379 11.7353 25.2712C11.8191 25.3045 12.085 25.3806 12.3214 25.4424C12.6219 25.5185 12.7351 25.5661 12.6908 25.5946C12.6465 25.6279 12.6711 25.6327 12.7548 25.6137C12.8287 25.5994 13.0553 25.6374 13.272 25.6993C13.4887 25.7611 13.7793 25.8372 13.9172 25.8705C14.06 25.899 14.1683 25.9466 14.1536 25.9656C14.1388 25.9894 14.1683 25.9942 14.2127 25.9847C14.2619 25.9704 14.4934 26.018 14.7347 26.0845C14.9711 26.1511 15.1878 26.2035 15.2223 26.2035C15.2519 26.2035 15.306 26.2415 15.3454 26.2891C15.3848 26.3319 15.4045 26.3414 15.3848 26.3129C15.3454 26.232 15.3405 26.232 16.099 26.3937C16.4634 26.4746 16.8919 26.5554 17.0446 26.5697C17.2022 26.584 17.3204 26.6125 17.3106 26.6268C17.2859 26.6601 17.4435 26.6696 18.463 26.6838C19.0885 26.6886 19.32 26.6743 19.7337 26.5887C20.0144 26.5316 20.2656 26.4983 20.2952 26.5174C20.3247 26.5364 20.3346 26.5316 20.3198 26.5031C20.2804 26.4413 20.7483 26.2938 20.8665 26.3271C20.9256 26.3461 20.9305 26.3414 20.8911 26.3129C20.8468 26.2843 20.9059 26.232 21.093 26.1464C21.2359 26.0798 21.487 25.9133 21.6496 25.7801C21.817 25.6517 21.9648 25.5566 21.9845 25.5756C22.0042 25.5946 22.0091 25.5851 21.9992 25.5613C21.9845 25.509 22.2849 25.0619 22.3735 25.0048C22.4031 24.9858 22.4129 24.9668 22.3932 24.9668C22.3735 24.9668 22.3932 24.8764 22.4326 24.767C22.472 24.6529 22.5508 24.3818 22.605 24.163C22.6592 23.9394 22.7479 23.6921 22.802 23.6065C22.9153 23.4305 23.7132 22.855 23.787 22.9025C23.8117 22.9168 23.8265 22.9025 23.8215 22.8645C23.8117 22.8312 23.8462 22.8074 23.8905 22.8074C23.9397 22.8122 23.9693 22.7979 23.9545 22.7789C23.9151 22.7218 24.5603 22.2937 24.6292 22.3318C24.6588 22.3508 24.6686 22.346 24.6539 22.3175C24.6145 22.2604 24.7376 22.1463 24.7819 22.1938C24.8016 22.2081 24.8164 22.2033 24.8164 22.1748C24.8164 22.1177 25.3089 21.7991 25.368 21.8181C25.3926 21.8228 25.4025 21.8086 25.3976 21.7848C25.3877 21.761 25.5207 21.6468 25.6931 21.5232C26.0033 21.2996 26.0821 21.2616 26.0181 21.3615C25.9984 21.3948 26.0033 21.3995 26.0427 21.3805C26.0723 21.3615 26.0871 21.3282 26.0723 21.3044C26.0329 21.2473 26.9194 20.6242 26.9884 20.667C27.0228 20.6861 27.0327 20.6813 27.013 20.648C26.9736 20.5862 28.4462 19.516 28.5447 19.535C28.5841 19.5445 28.6038 19.5303 28.589 19.5017C28.5545 19.4494 29.2785 18.9405 29.3524 18.9595C29.377 18.969 29.3967 18.9547 29.3967 18.931C29.3967 18.8549 30.037 18.5837 30.1404 18.6075C30.1897 18.6218 30.2241 18.6123 30.2094 18.5933C30.17 18.5314 30.6034 18.4839 30.9087 18.5124C31.2141 18.5457 31.6426 18.7264 31.6229 18.8216C31.6179 18.8596 31.6278 18.8739 31.6524 18.8596C31.7115 18.8263 31.8888 19.0118 31.9529 19.1735C32.0317 19.3733 32.007 19.9203 31.9135 20.1676C31.8642 20.2865 31.746 20.5006 31.6475 20.6433C31.4062 20.9905 30.8792 21.547 30.8201 21.5137C30.7955 21.4994 30.7807 21.5089 30.7856 21.5327C30.8102 21.6088 30.0813 22.3555 30.0271 22.3175C29.9976 22.3032 29.9877 22.3127 30.0025 22.3365C30.0419 22.3984 29.9188 22.5078 29.8646 22.4554C29.84 22.4364 29.84 22.4459 29.8548 22.4745C29.8942 22.541 29.6775 22.7456 29.6184 22.698C29.5987 22.6742 29.5937 22.6837 29.6085 22.7123C29.6479 22.7789 29.3327 23.0785 29.2736 23.031C29.2539 23.0072 29.249 23.0167 29.2638 23.0452C29.3032 23.1118 28.9879 23.4115 28.9288 23.3639C28.9091 23.3401 28.9042 23.3496 28.919 23.3782C28.9535 23.4305 28.5398 23.8823 28.4905 23.8443C28.4757 23.8348 28.4708 23.8395 28.4856 23.8586C28.5201 23.9014 28.1655 24.2486 28.0965 24.2343C28.067 24.2248 28.062 24.2296 28.0867 24.2438C28.1064 24.2533 27.9438 24.4436 27.7173 24.6624C27.4956 24.8812 27.2888 25.0429 27.2642 25.0286C27.2346 25.0144 27.2297 25.0191 27.2445 25.0477C27.2789 25.1 26.9687 25.4091 26.9194 25.3711C26.8997 25.3568 26.8948 25.3616 26.9096 25.3806C26.949 25.4329 26.5303 25.8229 26.4712 25.7896C26.4417 25.7754 26.4318 25.7801 26.4564 25.7992C26.5057 25.8515 26.2447 26.1131 26.1806 26.075C26.1511 26.0608 26.1462 26.0655 26.1609 26.0941C26.1905 26.1369 25.6684 26.6743 25.5946 26.6791C25.5699 26.6791 25.5552 26.6934 25.5552 26.7171C25.5552 26.7362 25.3483 26.9502 25.102 27.188C24.777 27.5019 24.6342 27.6113 24.6046 27.5685C24.5751 27.5305 24.5701 27.5352 24.5849 27.5876C24.6145 27.6827 24.2746 28.0251 24.1761 28.0014C24.1367 27.9919 24.1072 28.0204 24.1023 28.0584C24.1023 28.125 23.8412 28.3771 23.2256 28.9051C23.0975 29.0192 22.9695 29.0953 22.935 29.0763C22.9005 29.0573 22.8956 29.062 22.9153 29.0953C22.9498 29.1524 22.6001 29.4473 21.6348 30.156C21.2802 30.4176 20.9551 30.6269 20.9206 30.6174C20.8812 30.6079 20.8566 30.6269 20.8615 30.6602C20.8763 30.722 20.0982 31.2119 19.6007 31.4592C19.0984 31.7018 18.532 31.8731 18.3497 31.8445C18.2315 31.8255 18.2168 31.8255 18.2906 31.8588C18.3694 31.8921 18.3448 31.9063 18.1527 31.9349C18.0247 31.9539 17.8671 31.9587 17.7981 31.9492C17.7292 31.9349 17.675 31.9444 17.675 31.9634C17.675 32.0157 17.0791 32.011 16.6407 31.9539Z" fill="#8BD4F4"/>
<path d="M0.890197 22.4365C0.919747 22.3367 0.964073 22.2558 0.988699 22.2558C1.01332 22.2558 1.01825 22.232 1.00347 22.2082C0.959148 22.1369 1.0281 21.9657 1.0872 21.9989C1.12168 22.018 1.1266 22.0085 1.1069 21.9752C1.05273 21.8991 1.66836 20.2534 1.73239 20.2914C1.75701 20.3057 1.76686 20.2962 1.75209 20.2724C1.70284 20.1963 2.11162 19.1118 2.17565 19.1499C2.2052 19.1642 2.21012 19.1546 2.19042 19.1213C2.15102 19.0643 2.2446 18.7361 2.3037 18.7361C2.3234 18.7361 2.33818 18.698 2.33818 18.6552C2.3431 18.5078 2.86516 17.214 2.90456 17.2426C2.92919 17.2568 2.93411 17.2378 2.92426 17.1998C2.90949 17.1665 3.03261 16.786 3.19514 16.3531C3.36259 15.9251 3.58915 15.3353 3.70243 15.0404C3.8157 14.7502 3.92405 14.5219 3.95361 14.5362C3.97823 14.5552 3.98316 14.541 3.96346 14.5077C3.92406 14.4506 4.26389 13.5041 4.32299 13.5041C4.33776 13.5041 4.35746 13.4565 4.35746 13.3947C4.36239 13.3376 4.40671 13.2044 4.45104 13.0998C4.50029 12.9951 4.54462 12.8857 4.55447 12.8524C4.55939 12.8191 4.61357 12.6669 4.6776 12.51L4.79087 12.2294L4.9928 12.3958C5.10115 12.4862 5.1898 12.5861 5.1898 12.6146C5.19473 12.6479 5.21935 12.6669 5.25383 12.6622C5.28338 12.6527 5.41636 12.743 5.54441 12.8572C5.67246 12.9761 5.85469 13.1283 5.94334 13.1949C6.02707 13.2662 6.08617 13.3471 6.06647 13.3709C6.0517 13.4042 6.06155 13.4089 6.0911 13.3899C6.12557 13.3709 6.1502 13.3804 6.1502 13.4089C6.1502 13.4375 6.1699 13.4517 6.1896 13.4375C6.21422 13.4232 6.27825 13.4613 6.33243 13.5183C6.3866 13.5754 6.54421 13.7086 6.68211 13.8085C6.82001 13.9131 6.92344 14.013 6.91359 14.0273C6.90374 14.0463 6.91851 14.0606 6.95299 14.0606C7.03179 14.0606 7.67698 14.5077 7.67698 14.56C7.67698 14.5838 7.69668 14.5933 7.71638 14.579C7.77055 14.5457 8.27784 14.8596 8.23351 14.9024C8.21381 14.9215 8.23844 14.9215 8.28769 14.9024C8.35664 14.8787 8.37142 14.8834 8.34679 14.9215C8.32217 14.9595 8.34679 14.9785 8.40589 14.9785C8.52902 14.9785 9.21361 15.2829 9.17913 15.321C9.15943 15.3353 9.19883 15.3495 9.26286 15.3448C9.32689 15.3448 9.57806 15.3923 9.81939 15.4494C10.243 15.5493 10.4301 15.5588 11.356 15.5303C11.4644 15.5303 11.5481 15.5113 11.5383 15.497C11.5136 15.4589 11.9126 15.34 12.0357 15.3495C12.0899 15.3543 12.1046 15.3448 12.0702 15.3305C12.0308 15.3115 12.1145 15.2401 12.2819 15.145C12.4297 15.0546 12.6365 14.9215 12.7351 14.8406C12.8336 14.7645 12.937 14.7122 12.9665 14.7265C12.9961 14.7407 13.0059 14.7407 12.9862 14.7169C12.9665 14.6979 13.0355 14.579 13.1389 14.4601C13.9318 13.5326 14.3505 12.3483 14.5229 10.5789C14.6755 8.96648 14.4687 6.7833 14.0451 5.64177C13.9762 5.45152 13.9171 5.26126 13.9171 5.21845C13.9121 5.17565 13.8924 5.15187 13.8727 5.16138C13.853 5.17565 13.8136 5.14235 13.7841 5.09003C13.661 4.86648 13.395 4.86172 13.2916 5.07576C13.2128 5.23272 13.1882 5.33261 13.2374 5.30407C13.2768 5.28029 13.7004 6.87367 13.7792 7.34455C14.0648 9.02355 14.0008 10.8785 13.6068 12.2198C13.4492 12.743 13.3901 12.8905 13.3359 12.8572C13.3113 12.8429 13.3064 12.8619 13.3211 12.9C13.3605 12.9999 13.0059 13.661 12.937 13.6182C12.9025 13.5992 12.8976 13.6039 12.9173 13.642C12.9419 13.6753 12.868 13.8037 12.7449 13.9607C12.5183 14.2413 12.3657 14.3697 12.2967 14.3317C12.2721 14.3174 12.2622 14.3317 12.2672 14.365C12.2869 14.4411 11.9618 14.6551 11.8781 14.6266C11.8436 14.6123 11.819 14.6266 11.8288 14.6599C11.8338 14.6932 11.7894 14.7169 11.7303 14.7122C11.6712 14.7122 11.6318 14.7264 11.6417 14.7455C11.686 14.8073 11.228 14.8834 10.7896 14.8834C10.2922 14.8834 9.77999 14.8026 9.82924 14.7265C9.84402 14.6979 9.83417 14.6932 9.80462 14.7122C9.72582 14.7597 9.49434 14.6932 9.53374 14.6313C9.55344 14.6028 9.53866 14.598 9.50419 14.6218C9.42539 14.6646 8.9969 14.5124 9.03138 14.4506C9.05108 14.4268 9.02153 14.422 8.9772 14.4411C8.9181 14.4601 8.90333 14.4553 8.92795 14.4173C8.95258 14.3792 8.93288 14.3697 8.8787 14.3935C8.8196 14.4125 8.80482 14.4078 8.82945 14.3697C8.84915 14.3364 8.8393 14.3222 8.7999 14.3364C8.71617 14.3697 8.18919 14.0939 8.20889 14.0273C8.21381 13.9987 8.19904 13.9845 8.16949 14.0035C8.04143 14.0796 6.29303 12.862 6.33735 12.7288C6.34228 12.705 6.3275 12.7002 6.30288 12.7145C6.1896 12.7811 3.78615 10.5313 3.37737 9.97959C3.22469 9.77506 3.12126 9.56102 3.06709 9.36601C2.99321 9.08539 2.99321 9.04258 3.07201 8.76671C3.16559 8.43852 3.26902 8.2768 4.21956 7.02588C4.58894 6.54073 4.85982 6.22681 4.90907 6.22681C4.96325 6.22681 4.9731 6.21254 4.9337 6.18875C4.86475 6.14595 5.77097 4.95685 5.85962 4.98063C5.88917 4.98539 5.89902 4.97112 5.87932 4.94258C5.83992 4.88075 6.53928 3.9818 6.65748 3.95326C6.70181 3.94375 6.74121 3.91045 6.74121 3.88667C6.74121 3.86289 6.71658 3.85813 6.68211 3.87716C6.58853 3.93423 7.42087 2.9021 7.77548 2.52159C8.19411 2.07449 8.75557 1.60361 8.8196 1.64166C8.85408 1.66068 8.859 1.65117 8.8393 1.62263C8.8196 1.59409 8.92795 1.48945 9.10526 1.3753C9.26778 1.27066 9.40076 1.19456 9.40076 1.20883C9.40076 1.2231 9.44016 1.19456 9.48941 1.147C9.61254 1.02809 10.5188 0.604769 10.9719 0.452565C11.4594 0.286092 12.3804 0.10535 12.8976 0.072055C13.1291 0.0530295 13.4443 0.0292471 13.6068 0.0149779C13.8186 -0.00880396 13.9072 0.000709373 13.9368 0.0482731C13.9663 0.0958369 13.9811 0.100593 13.9811 0.0577857C13.9811 -0.0230727 14.4736 -0.0183164 15.4586 0.0672984C16.3057 0.138644 16.8968 0.229015 16.8623 0.286092C16.8475 0.305117 16.8771 0.309873 16.9214 0.30036C17.1184 0.252797 18.5959 0.742703 18.5713 0.847344C18.5664 0.880638 18.5959 0.899664 18.6452 0.890152C18.7634 0.861613 19.4135 1.17553 19.3692 1.23737C19.3544 1.26591 19.3692 1.28017 19.4086 1.27066C19.5071 1.24688 19.9946 1.56556 19.9552 1.63215C19.9405 1.66068 19.9405 1.6702 19.9651 1.65117C20.0193 1.59885 20.1966 1.70349 20.1572 1.76532C20.1375 1.79386 20.1424 1.80338 20.1719 1.78911C20.2409 1.7463 20.763 2.20767 21.152 2.65001C21.3687 2.89734 21.4475 3.02101 21.4328 3.0876C21.418 3.14467 21.4328 3.18272 21.4623 3.18272C21.4968 3.18272 21.5066 3.15419 21.4919 3.12089C21.4722 3.09235 21.5066 3.11614 21.5608 3.18272C21.7086 3.35395 22.1272 4.15778 22.2306 4.46695C22.2799 4.60964 22.3685 4.82843 22.4326 4.94734C22.4966 5.07101 22.536 5.1804 22.5261 5.19943C22.5114 5.2137 22.5114 5.21845 22.5261 5.20894C22.5409 5.19943 22.6345 5.27077 22.7379 5.3659C22.8364 5.46103 22.9989 5.59896 23.0925 5.67507C23.1861 5.74641 23.2304 5.79397 23.191 5.77019C23.1467 5.75117 23.1319 5.75592 23.1565 5.77971C23.1812 5.80349 23.2353 5.82251 23.2797 5.82251C23.324 5.82251 23.3634 5.8463 23.3634 5.87959C23.3634 5.90813 23.3831 5.95094 23.4077 5.97472C23.4324 5.9985 23.4373 5.98899 23.4176 5.95569C23.3979 5.9224 23.393 5.89386 23.4127 5.89386C23.4718 5.89386 23.9544 6.14595 23.9889 6.19827C24.0086 6.2268 24.0283 6.23632 24.0283 6.21729C24.0283 6.18875 24.5405 6.35523 24.9394 6.51694C25.0232 6.54548 25.1315 6.58353 25.1857 6.59305C25.2399 6.60256 25.5354 6.67866 25.8407 6.75952C26.215 6.8594 26.3726 6.92599 26.3332 6.95453C26.2889 6.98307 26.3037 6.98783 26.3677 6.96404C26.5155 6.91648 27.4759 7.18284 27.4759 7.27321C27.4759 7.32553 27.4857 7.33028 27.5153 7.28748C27.535 7.25418 27.599 7.23991 27.6679 7.25894C27.7517 7.27797 27.7664 7.29699 27.7123 7.33029C27.6679 7.36358 27.6876 7.36834 27.7714 7.34931C27.9142 7.32077 28.6677 7.50151 28.6333 7.55859C28.6185 7.58237 28.648 7.58713 28.6973 7.57762C28.7958 7.54908 29.5296 7.76312 29.8153 7.90105C30.2684 8.1246 30.6279 8.55267 30.5639 8.79525C30.5491 8.85708 30.559 8.88086 30.5885 8.86184C30.6279 8.83806 30.6328 8.9094 30.6082 9.08539C30.5885 9.22808 30.554 9.34699 30.5294 9.3565C30.5048 9.36601 30.4949 9.39931 30.5097 9.42785C30.5393 9.50395 29.9089 11.0831 29.6478 11.6015C29.4163 12.0534 29.042 12.5813 28.9682 12.5671C28.9386 12.5623 28.9189 12.5908 28.9238 12.6384C28.9238 12.6812 28.8992 12.7145 28.8647 12.705C28.8253 12.7002 28.8106 12.7145 28.8253 12.7383C28.8647 12.7954 28.7367 12.8952 28.6825 12.8477C28.6579 12.8287 28.6579 12.8429 28.6776 12.8715C28.717 12.9428 28.3673 13.2758 28.2934 13.2329C28.2688 13.2187 28.2639 13.2282 28.2836 13.2567C28.3673 13.3899 26.8356 14.3317 26.678 14.2365C26.6484 14.2175 26.6386 14.2223 26.6534 14.2508C26.6829 14.2984 26.5105 14.3745 26.3677 14.3792C26.3431 14.384 26.3037 14.403 26.2889 14.4268C26.2692 14.4506 26.1904 14.4696 26.1067 14.4744C26.023 14.4744 25.9688 14.4934 25.9786 14.5124C26.0131 14.56 25.4812 14.6551 25.3285 14.6218C25.2202 14.6028 25.2103 14.6075 25.2842 14.6361C25.3925 14.6836 24.9148 14.7597 24.1613 14.8168C23.5358 14.8596 22.4178 14.7978 22.3291 14.7074C22.2897 14.6694 22.2553 14.6551 22.2553 14.6789C22.2553 14.7027 21.7972 14.7169 21.2407 14.7122C20.6842 14.7074 20.2409 14.7122 20.2557 14.7312C20.2901 14.7597 19.7238 14.9833 19.5859 14.9928C19.5415 14.9976 19.512 15.0118 19.5268 15.0309C19.5366 15.0499 19.4578 15.1165 19.3495 15.1878C19.2411 15.2544 19.049 15.4114 18.921 15.535C18.7929 15.6635 18.6649 15.7633 18.6353 15.7633C18.6107 15.7681 18.591 15.7919 18.5959 15.8204C18.6058 15.8537 18.5368 15.9821 18.4482 16.1106C18.3644 16.239 18.2167 16.5148 18.1231 16.7289C18.0295 16.9429 17.931 17.0999 17.9064 17.0856C17.8768 17.0713 17.8719 17.0809 17.8916 17.1094C17.9409 17.1855 17.8719 17.409 17.8079 17.371C17.7783 17.3567 17.7734 17.3662 17.7931 17.3948C17.8424 17.4709 17.7192 17.8371 17.6601 17.7991C17.6306 17.78 17.6207 17.7991 17.6404 17.8466C17.6798 17.9465 17.4631 18.7979 17.409 18.7503C17.3843 18.7313 17.3794 18.7503 17.3942 18.7932C17.409 18.836 17.3597 19.2212 17.2809 19.6493C17.2021 20.0774 17.1036 20.7385 17.0593 21.1143C17.01 21.4948 16.9608 21.8182 16.9411 21.842C16.9214 21.861 16.488 21.7374 15.9708 21.5614C15.4586 21.3901 14.8331 21.1856 14.582 21.1095C14.2914 21.0191 14.1387 20.9478 14.1584 20.9145C14.1781 20.8812 14.1683 20.8764 14.1338 20.8955C14.1042 20.9145 13.5772 20.767 12.9567 20.572C11.4545 20.0916 11.2181 20.0203 11.1393 20.0203C11.0999 20.0203 11.0802 20.0013 11.095 19.9775C11.1098 19.9585 11.0605 19.9394 10.9866 19.9394C10.9128 19.9442 10.5779 19.8871 10.238 19.8158C9.37613 19.6398 8.11531 19.5304 7.85921 19.6065C7.76563 19.6398 7.7016 19.635 7.6622 19.597C7.63265 19.5684 7.5834 19.5447 7.55385 19.5447C7.52922 19.5447 7.53415 19.5637 7.56862 19.5875C7.60803 19.6112 7.47505 19.6398 7.22879 19.6588C6.92344 19.6826 6.81016 19.6778 6.77569 19.6303C6.74614 19.5827 6.73628 19.5875 6.75598 19.6445C6.77568 19.7064 6.73628 19.7302 6.55898 19.7539C6.43585 19.7682 6.31765 19.7682 6.29303 19.7539C6.2684 19.7397 6.2487 19.7492 6.2487 19.7682C6.2487 19.792 6.1305 19.8348 5.98275 19.8681C5.83499 19.9014 5.45083 20.0155 5.1307 20.1249C4.81057 20.2296 4.50029 20.32 4.44119 20.3247C4.38701 20.3247 4.34761 20.3437 4.35746 20.358C4.38701 20.4056 4.22941 20.4531 4.16539 20.4151C4.13091 20.4008 4.12106 20.4056 4.14076 20.4246C4.16539 20.4484 3.98808 20.5578 3.74675 20.6672C3.02276 21.0096 2.3037 21.4472 1.64866 21.9419C1.49106 22.0608 1.33838 22.1464 1.30883 22.1274C1.27928 22.1131 1.27435 22.1226 1.29405 22.1512C1.30883 22.1797 1.2448 22.2605 1.14138 22.3367C1.03795 22.408 0.929598 22.5031 0.895122 22.5412C0.845871 22.5983 0.845871 22.5745 0.890197 22.4365ZM20.3197 7.48249C20.6201 7.26369 20.7383 7.05917 20.7728 6.70244C20.7925 6.5217 20.7876 6.3695 20.7679 6.3695C20.7482 6.3695 20.7285 6.34096 20.7285 6.30766C20.7285 6.17924 20.428 5.85581 20.2261 5.76544C19.9306 5.6275 19.6942 5.56091 19.6942 5.61323C19.6942 5.63702 19.6351 5.65604 19.5612 5.65604C19.4923 5.65604 19.3396 5.70836 19.2263 5.77495C19.113 5.83678 18.9998 5.87483 18.9801 5.85581C18.9653 5.83678 18.9554 5.8463 18.9604 5.87008C18.9801 5.9224 18.7338 6.42182 18.7043 6.39328C18.6944 6.38377 18.6846 6.48365 18.6846 6.61207C18.6846 6.74049 18.6993 6.84513 18.724 6.84513C18.7437 6.84513 18.7584 6.87367 18.7584 6.90697C18.7584 6.94026 18.8126 7.0449 18.8816 7.13527C18.9456 7.2304 18.985 7.32553 18.9653 7.34455C18.9456 7.35882 18.9554 7.36834 18.9801 7.36358C19.0638 7.3398 19.2559 7.46346 19.2214 7.52054C19.2017 7.54908 19.2066 7.55859 19.2411 7.54432C19.2657 7.5253 19.3445 7.53005 19.4086 7.55859C19.6056 7.63945 20.167 7.59188 20.3197 7.48249Z" fill="#68C2F3"/>
</svg>
